<svg xmlns="http://www.w3.org/2000/svg" xmlns:xlink="http://www.w3.org/1999/xlink" version="1.1" id="Layer_1" x="0px" y="0px" viewBox="0 0 32 32" style="enable-background:new 0 0 32 32;" xml:space="preserve">
<style type="text/css">
	.st0{fill:#2F4634;}
	.st1{fill:#F68648;}
	.st2{fill:#FFEFE5;}
	.st3{fill:#D8A66A;}
</style>
<g>
	<g id="Layer_2_00000131369747336838090040000010240710518948590003_">
		<path class="st0" d="M10.4,0h11.3C27.4,0,32,4.6,32,10.4v11.3C32,27.4,27.4,32,21.6,32H10.4C4.6,32,0,27.4,0,21.6V10.4    C0,4.6,4.6,0,10.4,0z"/>
	</g>
	<g id="Layer_1_00000091736517184409064140000014620148732027394214_">
		<g>
			<g>
				<path class="st1" d="M14.9,10.2c1.3-0.5,1.3-1.7,1.3-2.1V7.4c0.7,0.7,1.6,1.8,0.7,3c0.5,0,1.5,0,1.9-0.2      c0.5-1.5-0.3-2.7-1.2-3.6c-0.6-0.6-1.1-1-1.1-1.8c-0.3,0.3-0.6,0.7-0.8,1.1L14.9,5c-0.3-0.3-0.6-0.8-0.6-1.3      c-0.5,0.5-0.8,1.1-0.8,1.8c0,0.4,0.1,0.8,0.4,1.1c0.5,0.5,0.9,0.9,0.9,1.8c0,0.4-0.2,0.6-0.5,0.7C14,9.2,13.6,8.9,14,8.3      c0.2-0.5-0.2-1-0.6-1.1c0,0.9-0.3,1-0.7,1.5c-0.4,0.5,0,1.5,0.6,1.6C13.9,10.4,14.5,10.3,14.9,10.2L14.9,10.2z"/>
				<path class="st2" d="M16.6,23.5v-2.3c-0.7,0.8-1.4,1.2-2.1,1.2c-1.4,0-2.6-1.1-3.8-3.3c-0.2-0.5-0.1-1,0.4-1.7      c0.5-0.6,1.2-1.2,2-1.5c0.8-0.4,1.3-0.4,1.6-0.2c0.6,0.4,1.2,0.9,1.9,1.3c0,0,0-2.4,0-2.8c0.8,0,1.3,0,2.2-0.1v10.2L16.6,23.5      L16.6,23.5z M12.4,20.2c0.1,0.2,0.3,0.3,0.6,0.4c0.3,0.1,0.6,0.1,1,0.1c0.4,0,0.8-0.1,1.3-0.4c0.5-0.3,0.9-0.7,1.4-1.3v-1.1      c-0.9-0.4-1.7-0.5-2.4-0.3c-0.7,0.2-1.3,0.7-1.7,1.2C12.1,19.4,12.1,19.9,12.4,20.2L12.4,20.2z"/>
				<path class="st2" d="M21,17.3c-0.4-0.2-0.7-0.5-0.9-0.9c0-0.1,0.1-0.3,0.4-0.5c0.2-0.2,0.4-0.3,0.5-0.3c0.4,0.2,0.7,0.5,0.9,0.9      C21.8,16.8,21.5,17,21,17.3L21,17.3z M21,21c-0.4-0.2-0.7-0.5-0.9-0.9c0-0.1,0.1-0.3,0.4-0.5c0.2-0.2,0.4-0.3,0.5-0.3      c0.4,0.2,0.7,0.5,0.9,0.9C21.8,20.4,21.5,20.7,21,21L21,21z"/>
				<path class="st2" d="M21.7,12.5c0,0-2.3,0.5-5.7,0.5s-5.7-0.5-5.7-0.5l-0.6-1.7c0,0,3.5,0.5,6.3,0.5s6.3-0.5,6.3-0.5L21.7,12.5      L21.7,12.5z"/>
			</g>
			<path class="st3" d="M15.6,4.5c0.2-0.5,0.8-1.1,1.3-1.6c-0.6,0-1.2,0-1.8,0C15.2,3.6,15.3,4.3,15.6,4.5L15.6,4.5z M28.1,14.5     c-0.2-1.6-0.7-3.2-1.4-4.7c-0.4-0.7-0.8-1.4-1.3-2.1c-0.5-0.7-1-1.3-1.6-1.8c-0.6-0.6-1.3-1-1.9-1.4c-0.7-0.4-1.4-0.7-2.2-1     C19,3.2,18.3,3.1,17.6,3c-0.1,0.5-0.1,1.1,0,1.5c0.6,0.1,1.2,0.2,1.7,0.3c0.7,0.2,1.3,0.4,2,0.8c0.6,0.3,1.2,0.8,1.8,1.2     c1.1,1,1.9,2.2,2.5,3.6c0.6,1.3,1,2.8,1.1,4.3c0.1,1.5,0.1,2.9-0.3,4.3c-0.4,1.4-1,2.7-1.9,3.7c-0.9,1-2.1,1.8-3.3,2.4     c-1.3,0.6-2.6,1.1-4,1.3c-1.4,0.2-2.9,0.1-4.3-0.2c-1.4-0.4-2.7-1-3.8-1.9c-1.1-0.8-1.9-2-2.4-3.3c-0.5-1.3-0.8-2.8-0.8-4.2     c0-1.4,0.2-2.9,0.6-4.3c0.2-0.7,0.4-1.4,0.7-2c0.3-0.7,0.6-1.3,1-1.9c0.8-1.2,1.8-2.2,3-2.9c0.5-0.3,1-0.5,1.5-0.7     c0.1-0.7,0.6-1.4,1.1-2c-1.1,0.2-2.2,0.7-3.3,1.2C8.9,5.1,7.6,6.2,6.6,7.5c-1,1.3-1.8,2.9-2.2,4.5c-0.5,1.6-0.6,3.3-0.6,5     c0.1,1.7,0.4,3.4,1.1,4.9c0.3,0.8,0.8,1.5,1.3,2.2c0.5,0.7,1.1,1.3,1.8,1.8c1.4,1,2.9,1.5,4.5,1.8c1.6,0.3,3.1,0.3,4.7,0.2     c1.6-0.1,3.2-0.3,4.7-0.9c1.5-0.6,2.9-1.6,4-2.9c1.1-1.3,1.8-2.9,2.1-4.6C28.3,17.8,28.3,16.1,28.1,14.5L28.1,14.5z"/>
		</g>
	</g>
</g>
</svg>